<?xml version="1.0" encoding="UTF-8" standalone="no"?>
<!-- Created with Inkscape (http://www.inkscape.org/) -->

<svg
   xmlns:dc="http://purl.org/dc/elements/1.1/"
   xmlns:cc="http://creativecommons.org/ns#"
   xmlns:rdf="http://www.w3.org/1999/02/22-rdf-syntax-ns#"
   xmlns:svg="http://www.w3.org/2000/svg"
   xmlns="http://www.w3.org/2000/svg"
   xmlns:sodipodi="http://sodipodi.sourceforge.net/DTD/sodipodi-0.dtd"
   xmlns:inkscape="http://www.inkscape.org/namespaces/inkscape"
   width="210mm"
   height="297mm"
   id="svg2"
   sodipodi:version="0.32"
   inkscape:version="0.48.4 r9939"
   sodipodi:docname="encabezado_simple.eps"
   inkscape:output_extension="org.inkscape.output.svg.inkscape"
   inkscape:export-filename="/misc/informatica/formatos/encabezado_simple.eps.png"
   inkscape:export-xdpi="150"
   inkscape:export-ydpi="150"
   version="1.1">
  <defs
     id="defs4" />
  <sodipodi:namedview
     id="base"
     pagecolor="#ffffff"
     bordercolor="#666666"
     borderopacity="1.0"
     inkscape:pageopacity="0.0"
     inkscape:pageshadow="2"
     inkscape:zoom="1.5752192"
     inkscape:cx="433.85404"
     inkscape:cy="978.75804"
     inkscape:document-units="px"
     inkscape:current-layer="layer1"
     inkscape:window-width="1375"
     inkscape:window-height="876"
     inkscape:window-x="65"
     inkscape:window-y="24"
     showguides="true"
     inkscape:guide-bbox="true"
     showgrid="false"
     inkscape:window-maximized="1" />
  <metadata
     id="metadata7">
    <rdf:RDF>
      <cc:Work
         rdf:about="">
        <dc:format>image/svg+xml</dc:format>
        <dc:type
           rdf:resource="http://purl.org/dc/dcmitype/StillImage" />
        <dc:title></dc:title>
      </cc:Work>
    </rdf:RDF>
  </metadata>
  <g
     inkscape:label="Capa 1"
     inkscape:groupmode="layer"
     id="layer1">
    <text
       xml:space="preserve"
       style="font-size:12.42345428px;font-style:normal;font-variant:normal;font-weight:normal;font-stretch:normal;text-align:start;line-height:100%;writing-mode:lr-tb;text-anchor:start;fill:#000000;fill-opacity:1;stroke:none;stroke-width:1px;stroke-linecap:butt;stroke-linejoin:miter;stroke-opacity:1;font-family:Arial"
       x="32.604317"
       y="52.70879"
       id="text3484"
       sodipodi:linespacing="100%"><tspan
         sodipodi:role="line"
         id="tspan3486"
         x="32.604317"
         y="52.70879"
         style="fill:#808080">Gobierno<tspan
   style="font-weight:bold;fill:#4d4d4d"
   id="tspan3506"> Bolivariano</tspan></tspan><tspan
         sodipodi:role="line"
         x="32.604317"
         y="65.132244"
         id="tspan3488"
         style="fill:#808080">de Venezuela</tspan></text>
    <text
       xml:space="preserve"
       style="font-size:10.11751175px;font-style:normal;font-variant:normal;font-weight:normal;font-stretch:normal;text-align:start;line-height:100%;writing-mode:lr-tb;text-anchor:start;fill:#000000;fill-opacity:1;stroke:none;font-family:Arial"
       x="170.95364"
       y="54.3554"
       id="text3490"
       sodipodi:linespacing="100%"><tspan
         sodipodi:role="line"
         id="tspan3492"
         x="170.95364"
         y="54.3554"
         style="fill:#808080">Ministerio del Poder Popular</tspan><tspan
         sodipodi:role="line"
         x="170.95364"
         y="64.472916"
         id="tspan3494"><tspan
           style="fill:#808080"
           id="tspan4493">para</tspan><tspan
           style="font-weight:bold;fill:#4d4d4d"
           id="tspan3504"> Educación Universitaria, Ciencia y Tecnología</tspan></tspan></text>
    <path
       style="fill:#000000;fill-rule:evenodd;stroke:#4d4d4d;stroke-width:2.01688099000000021px;stroke-linecap:butt;stroke-linejoin:miter;stroke-opacity:1;fill-opacity:0"
       d="m 163.36474,65.270707 0,-20.261526"
       id="path7410"
       inkscape:connector-curvature="0" />
    <path
       style="fill:#4d4d4d;fill-rule:evenodd;stroke:#4d4d4d;stroke-width:2.28124332000000019px;stroke-linecap:butt;stroke-linejoin:miter;stroke-opacity:1;fill-opacity:1"
       d="M 4.6656424,70.9789 L 730.40448,70.9789"
       id="path10345" />
    <g
       id="g11540"
       transform="matrix(0.8282303,0,0,0.8282303,-75.190854,-32.931058)">
      <path
         sodipodi:nodetypes="cccscccssssscc"
         style="fill:#faed08"
         d="M 96.326095,110.11056 L 96.326665,101.15293 L 96.711329,100.41606 C 98.072888,98.561241 100.99597,96.325621 103.68257,95.084341 C 105.85433,94.080921 109.56472,93.341171 111.84891,93.456201 L 112.8659,93.507411 L 113.04677,94.141681 C 113.2084,94.708441 113.27508,94.770791 113.67324,94.727461 C 114.82925,94.601671 118.39478,92.903011 120.44554,91.501053 C 121.80946,90.568637 124.27127,88.173514 125.02375,87.046845 C 125.24178,86.720395 125.5433,86.384492 125.54329,86.452215 L 125.54147,96.28806 C 125.53997,104.4478 112.75616,102.42585 105.10813,103.42818 C 100.81168,105.77076 100.48101,106.66366 96.326095,110.11056 z "
         id="path10509" />
      <path
         sodipodi:nodetypes="csssscccccsssssscccsssssssc"
         style="fill:#0949b6"
         d="M 101.69501,113.18585 C 105.30408,109.79994 109.30037,107.90216 113.3645,107.14062 C 114.93121,106.84704 115.19253,106.93667 115.19253,107.76764 C 115.19253,108.04553 115.28501,108.39937 115.39803,108.55393 C 115.59379,108.82165 115.6783,108.82224 117.18192,108.56634 C 120.02844,108.0819 122.50579,107.11068 124.49718,105.69845 C 123.69696,106.22011 108.64655,113.50042 101.69501,113.18585 z M 96.322942,114.36949 L 96.322942,110.09854 L 97.302856,108.85925 C 98.550141,107.28182 100.83907,105.00804 102.26924,103.92575 C 103.6444,102.88509 106.1631,101.63282 107.73984,101.20582 C 109.10772,100.83538 111.90653,100.41228 113.0172,100.40802 C 113.82438,100.40493 113.83517,100.4158 113.99811,101.39617 C 114.12562,102.16347 114.38358,102.16846 116.54427,101.44544 C 119.44147,100.47598 121.8858,99.082601 124.2051,97.078421 C 124.89984,96.478071 125.51096,96.029571 125.56314,96.081761 L 125.56873,104.59699 L 125.04976,104.9885 C 123.69728,106.25609 121.03121,107.50649 118.41623,108.09966 C 117.47171,108.31391 116.43458,108.48986 116.11148,108.49065 C 115.55586,108.49201 115.51861,108.45988 115.42372,107.89745 C 115.19984,106.57037 115.15969,106.55534 113.01877,106.99756 C 110.03137,107.61462 106.80298,109.06025 104.10238,110.9902 C 102.25607,112.30964 99.265852,115.16601 97.652859,117.15103 C 96.987212,117.9702 96.415671,118.64043 96.382767,118.64043 C 96.349864,118.64043 96.322942,116.71851 96.322942,114.36949 z "
         id="path10501" />
      <path
         sodipodi:nodetypes="csssssscccsssccc"
         style="fill:#dc0f1c"
         d="M 96.45881,118.66296 C 96.24643,118.31932 100.02068,114.3071 102.12388,112.4569 C 105.83949,109.18826 109.48977,107.58649 113.5539,106.82495 C 115.12061,106.53137 115.38193,106.621 115.38193,107.45197 C 115.38193,107.72986 115.47441,108.0837 115.58743,108.23826 C 115.78319,108.50598 115.87183,108.52974 117.37132,108.25067 C 120.10043,107.74275 122.10726,106.9489 124.27621,105.57218 C 124.834,105.21813 125.35765,104.66401 125.56368,104.61937 L 125.59106,112.77776 L 124.98411,113.16021 C 123.22076,114.2193 118.23111,115.94059 116.91514,115.94377 C 116.53684,115.94468 116.48698,115.87316 116.39077,115.19158 C 116.20316,113.86251 116.22205,113.8834 115.20721,113.8834 C 112.55545,113.8834 109.46789,114.81864 106.31173,117.75402 L 105.32468,118.67203 L 96.45881,118.66296 z "
         id="path10499" />
      <path
         transform="matrix(0.1799417,0,0,0.1799417,85.260592,95.60592)"
         d="m 76.651788,91.471112 -1.950266,4.62182 -2.133651,-4.540076 -4.998278,-0.426592 3.658534,-3.432183 -1.138839,-4.885469 4.39475,2.41887 4.294436,-2.592793 -0.94243,4.927127 3.792947,3.283034 z"
         inkscape:randomized="0"
         inkscape:rounded="0"
         inkscape:flatsided="false"
         sodipodi:arg2="1.5507829"
         sodipodi:arg1="0.92246434"
         sodipodi:r2="7.3929434"
         sodipodi:r1="3.4746833"
         sodipodi:cy="88.701469"
         sodipodi:cx="74.553574"
         sodipodi:sides="5"
         id="path10555"
         style="opacity:1;fill:#ffffff;fill-opacity:1;fill-rule:evenodd;stroke:#ffffff;stroke-width:2;stroke-linecap:butt;stroke-linejoin:miter;stroke-miterlimit:4;stroke-dasharray:none;stroke-opacity:1"
         sodipodi:type="star" />
      <path
         sodipodi:type="star"
         style="opacity:1;fill:#ffffff;fill-opacity:1;fill-rule:evenodd;stroke:#ffffff;stroke-width:2;stroke-linecap:butt;stroke-linejoin:miter;stroke-miterlimit:4;stroke-dasharray:none;stroke-opacity:1"
         id="path11526"
         sodipodi:sides="5"
         sodipodi:cx="74.553574"
         sodipodi:cy="88.701469"
         sodipodi:r1="3.4746833"
         sodipodi:r2="7.3929434"
         sodipodi:arg1="0.92246434"
         sodipodi:arg2="1.5507829"
         inkscape:flatsided="false"
         inkscape:rounded="0"
         inkscape:randomized="0"
         d="m 76.651788,91.471112 -1.950266,4.62182 -2.133651,-4.540076 -4.998278,-0.426592 3.658534,-3.432183 -1.138839,-4.885469 4.39475,2.41887 4.294436,-2.592793 -0.94243,4.927127 3.792947,3.283034 z"
         transform="matrix(0.1799417,0,0,0.1799417,88.162378,92.79342)" />
      <path
         transform="matrix(0.1799417,0,0,0.1799417,91.421307,90.382706)"
         d="m 76.651788,91.471112 -1.950266,4.62182 -2.133651,-4.540076 -4.998278,-0.426592 3.658534,-3.432183 -1.138839,-4.885469 4.39475,2.41887 4.294436,-2.592793 -0.94243,4.927127 3.792947,3.283034 z"
         inkscape:randomized="0"
         inkscape:rounded="0"
         inkscape:flatsided="false"
         sodipodi:arg2="1.5507829"
         sodipodi:arg1="0.92246434"
         sodipodi:r2="7.3929434"
         sodipodi:r1="3.4746833"
         sodipodi:cy="88.701469"
         sodipodi:cx="74.553574"
         sodipodi:sides="5"
         id="path11528"
         style="opacity:1;fill:#ffffff;fill-opacity:1;fill-rule:evenodd;stroke:#ffffff;stroke-width:2;stroke-linecap:butt;stroke-linejoin:miter;stroke-miterlimit:4;stroke-dasharray:none;stroke-opacity:1"
         sodipodi:type="star" />
      <path
         sodipodi:type="star"
         style="opacity:1;fill:#ffffff;fill-opacity:1;fill-rule:evenodd;stroke:#ffffff;stroke-width:2;stroke-linecap:butt;stroke-linejoin:miter;stroke-miterlimit:4;stroke-dasharray:none;stroke-opacity:1"
         id="path11530"
         sodipodi:sides="5"
         sodipodi:cx="74.553574"
         sodipodi:cy="88.701469"
         sodipodi:r1="3.4746833"
         sodipodi:r2="7.3929434"
         sodipodi:arg1="0.92246434"
         sodipodi:arg2="1.5507829"
         inkscape:flatsided="false"
         inkscape:rounded="0"
         inkscape:randomized="0"
         d="m 76.651788,91.471112 -1.950266,4.62182 -2.133651,-4.540076 -4.998278,-0.426592 3.658534,-3.432183 -1.138839,-4.885469 4.39475,2.41887 4.294436,-2.592793 -0.94243,4.927127 3.792947,3.283034 z"
         transform="matrix(0.1799417,0,0,0.1799417,95.260593,88.686277)" />
      <path
         transform="matrix(0.1799417,0,0,0.1799417,99.144522,87.971991)"
         d="m 76.651788,91.471112 -1.950266,4.62182 -2.133651,-4.540076 -4.998278,-0.426592 3.658534,-3.432183 -1.138839,-4.885469 4.39475,2.41887 4.294436,-2.592793 -0.94243,4.927127 3.792947,3.283034 z"
         inkscape:randomized="0"
         inkscape:rounded="0"
         inkscape:flatsided="false"
         sodipodi:arg2="1.5507829"
         sodipodi:arg1="0.92246434"
         sodipodi:r2="7.3929434"
         sodipodi:r1="3.4746833"
         sodipodi:cy="88.701469"
         sodipodi:cx="74.553574"
         sodipodi:sides="5"
         id="path11532"
         style="opacity:1;fill:#ffffff;fill-opacity:1;fill-rule:evenodd;stroke:#ffffff;stroke-width:2;stroke-linecap:butt;stroke-linejoin:miter;stroke-miterlimit:4;stroke-dasharray:none;stroke-opacity:1"
         sodipodi:type="star" />
      <path
         sodipodi:type="star"
         style="opacity:1;fill:#ffffff;fill-opacity:1;fill-rule:evenodd;stroke:#ffffff;stroke-width:2;stroke-linecap:butt;stroke-linejoin:miter;stroke-miterlimit:4;stroke-dasharray:none;stroke-opacity:1"
         id="path11534"
         sodipodi:sides="5"
         sodipodi:cx="74.553574"
         sodipodi:cy="88.701469"
         sodipodi:r1="3.4746833"
         sodipodi:r2="7.3929434"
         sodipodi:arg1="0.92246434"
         sodipodi:arg2="1.5507829"
         inkscape:flatsided="false"
         inkscape:rounded="0"
         inkscape:randomized="0"
         d="m 76.651788,91.471112 -1.950266,4.62182 -2.133651,-4.540076 -4.998278,-0.426592 3.658534,-3.432183 -1.138839,-4.885469 4.39475,2.41887 4.294436,-2.592793 -0.94243,4.927127 3.792947,3.283034 z"
         transform="matrix(0.1799417,0,0,0.1799417,102.44809,88.864848)" />
      <path
         transform="matrix(0.1799417,0,0,0.1799417,105.93023,87.927348)"
         d="m 76.651788,91.471112 -1.950266,4.62182 -2.133651,-4.540076 -4.998278,-0.426592 3.658534,-3.432183 -1.138839,-4.885469 4.39475,2.41887 4.294436,-2.592793 -0.94243,4.927127 3.792947,3.283034 z"
         inkscape:randomized="0"
         inkscape:rounded="0"
         inkscape:flatsided="false"
         sodipodi:arg2="1.5507829"
         sodipodi:arg1="0.92246434"
         sodipodi:r2="7.3929434"
         sodipodi:r1="3.4746833"
         sodipodi:cy="88.701469"
         sodipodi:cx="74.553574"
         sodipodi:sides="5"
         id="path11536"
         style="opacity:1;fill:#ffffff;fill-opacity:1;fill-rule:evenodd;stroke:#ffffff;stroke-width:2;stroke-linecap:butt;stroke-linejoin:miter;stroke-miterlimit:4;stroke-dasharray:none;stroke-opacity:1"
         sodipodi:type="star" />
      <path
         sodipodi:type="star"
         style="opacity:1;fill:#ffffff;fill-opacity:1;fill-rule:evenodd;stroke:#ffffff;stroke-width:2;stroke-linecap:butt;stroke-linejoin:miter;stroke-miterlimit:4;stroke-dasharray:none;stroke-opacity:1"
         id="path11538"
         sodipodi:sides="5"
         sodipodi:cx="74.553574"
         sodipodi:cy="88.701469"
         sodipodi:r1="3.4746833"
         sodipodi:r2="7.3929434"
         sodipodi:arg1="0.92246434"
         sodipodi:arg2="1.5507829"
         inkscape:flatsided="false"
         inkscape:rounded="0"
         inkscape:randomized="0"
         d="m 76.651788,91.471112 -1.950266,4.62182 -2.133651,-4.540076 -4.998278,-0.426592 3.658534,-3.432183 -1.138839,-4.885469 4.39475,2.41887 4.294436,-2.592793 -0.94243,4.927127 3.792947,3.283034 z"
         transform="matrix(0.1799417,0,0,0.1799417,109.45702,86.186277)" />
    </g>
    <text
       xml:space="preserve"
       style="font-size:10.11751175px;font-style:normal;font-variant:normal;font-weight:normal;font-stretch:normal;text-align:start;line-height:100%;writing-mode:lr-tb;text-anchor:start;fill:#000000;fill-opacity:1;stroke:none;font-family:Arial"
       x="428.55911"
       y="54.412228"
       id="text2194"
       sodipodi:linespacing="100%"><tspan
         sodipodi:role="line"
         x="428.55911"
         y="54.412228"
         id="tspan2206"
         style="font-weight:normal;fill:#808080;fill-opacity:1;-inkscape-font-specification:Arial">Fundación Venezolana de </tspan><tspan
         sodipodi:role="line"
         x="428.55911"
         y="64.529739"
         style="font-weight:bold;fill:#4d4d4d"
         id="tspan3015">Investigaciones Sismológicas (Funvisis)</tspan></text>
    <path
       id="path2216"
       d="m 419.43757,65.270707 0,-20.261526"
       style="fill:#808080;fill-rule:evenodd;stroke:#4d4d4d;stroke-width:2.01688099px;stroke-linecap:butt;stroke-linejoin:miter;stroke-opacity:1"
       inkscape:connector-curvature="0" />
  </g>
</svg>
